
Plot:

Charlie Harper leeft in een vrijgezellenparadijs. Hij heeft een strandhuis in Malibu, een vetbetaalde job en een agenda vol afspraakjes. Tot zijn broer Alan bij hem intrekt. Alan is één brok zenuwen, verwikkeld in een (v)echtscheiding en vader van een 10-jarig zoontje, Jake, die hem vergezelt. Sorry, Charlie... Daar gaat je paradijs! Maak kennis met de Harper-mannen - twee meerderjarigen, één kind... en geen enkele volwassene!  


Vertaald door: Fasso


Seizoen 9 Aflevering 4: Nine Magic Fingers


Walden goes looking for Mrs. Right while Alan has an opportunity to reconcile with Lyndsey.




INFO;


ideo
ID                                       : 0
Format                                   : MPEG-4 Visual
Format profile                           : Advanced Simple@L5
Format settings, BVOP                    : 1
Format settings, QPel                    : No
Format settings, GMC                     : No warppoints
Format settings, Matrix                  : Default (H.263)
Muxing mode                              : Packed bitstream
Codec ID                                 : XVID
Codec ID/Hint                            : XviD
Duration                                 : 20mn 51s
Bit rate                                 : 1 003 Kbps
Width                                    : 624 pixels
Height                                   : 352 pixels
Display aspect ratio                     : 16:9
Frame rate                               : 23.976 fps
Color space                              : YUV
Chroma subsampling                       : 4:2:0
Bit depth                                : 8 bits
Scan type                                : Progressive
Compression mode                         : Lossy
Bits/(Pixel*Frame)                       : 0.190
Stream size                              : 150 MiB (85%)
Writing library                          : XviD 64

Audio
ID                                       : 1
Format                                   : MPEG Audio
Format version                           : Version 1
Format profile                           : Layer 3
Codec ID                                 : 55
Codec ID/Hint                            : MP3
Duration                                 : 20mn 51s
Bit rate mode                            : Variable
Bit rate                                 : 160 Kbps
Channel(s)                               : 2 channels
Sampling rate                            : 48.0 KHz
Compression mode                         : Lossy
Stream size                              : 23.5 MiB (13%)
Alignment                                : Aligned on interleaves
Interleave, duration                     : 24 ms (0.58 video frame)
Interleave, preload duration             : 475 ms


 
http://www.imdb.com/title/tt0369179/




DutchReleaseteam = Hardcoded Dutch Subs